<svg xmlns="http://www.w3.org/2000/svg" viewBox="0 0 190 25">
  <path fill="#f01" d="M109.7 7.7 103 0l3.8 17.5L120.6 0zm-89.4 7.6 9.2-10.4L19.2 9 0 5z"/>
  <path fill="#fff" d="m102.6 4.5-4 14.3h7zm16.2 0L108 18.8h6.8zM185.3 6a6 6 0 0 0-3.2 1 7 7 0 0 0-1.2 1.2l.4-1.9h-4.2l-4.5 16.1h4.7l1.5-5c.4 1 1.3 1.6 2.5 1.6h.8c1.2-.2 2.4-.7 3.6-1.5.7-.5 1.4-1.2 2-2 .5-.8 1-1.9 1.3-3 .5-1.8.5-3.3-.1-4.6-.6-1.2-1.8-1.9-3.6-1.9m-1 6.5c-.3.9-.7 1.6-1.2 2-.3.4-.6.5-1 .7a2.8 2.8 0 0 1-.8 0c-.7 0-1-.1-1.3-.7-.2-.5-.2-1.2 0-2 .3-1.2.8-1.8 1.2-2.1.2-.3.8-.8 1.6-.8 1.3 0 2 1 1.4 3M82 6a6 6 0 0 0-3.1 1 7 7 0 0 0-1.3 1.2l.5-1.9h-4.3l-4.5 16.1H74l1.4-5c.5 1 1.4 1.6 2.6 1.6h.8c1.2-.2 2.4-.7 3.6-1.5.7-.5 1.3-1.2 1.9-2 .5-.8 1-1.9 1.4-3 .5-1.8.4-3.3-.1-4.6C85 6.7 83.8 6 81.9 6m-1 6.5c-.2.9-.6 1.6-1.1 2-.3.4-.7.5-1 .7a2.8 2.8 0 0 1-.9 0c-.7 0-1-.1-1.2-.7-.3-.5-.3-1.2 0-2 .3-1.2.8-1.8 1.2-2.1.2-.3.8-.8 1.6-.8 1.3 0 2 1 1.4 3M.4 24.3l12-4.8 22.6 5-24-12.3zM18 1a3.2 3.2 0 0 0-3 3.4c.2 1.7 1.8 3 3.5 3a3.2 3.2 0 0 0 3-3.5 3.2 3.2 0 0 0-3.5-3m150.3 14.3a2.5 2.5 0 0 1-2 1c-.8 0-1.2-.2-1.6-.6-.3-.5-.4-1-.2-1.8h9c.7-2.2.7-4.1-.2-5.5-.8-1.4-2.3-2.2-4.6-2.2l-1.2.1a9.2 9.2 0 0 0-7.5 6.7c-.5 2-.2 3.5.7 4.7 1 1 2.4 1.6 4.4 1.6a11.3 11.3 0 0 0 4.3-.8 7.3 7.3 0 0 0 3.5-3.2zm-.8-6h.6c.6 0 1 .2 1.2.6.3.4.4 1 .3 1.6h-4.3c.3-1.2 1-2 2.2-2.2zm-36.6-2.7c-.8-.2-1.9-.4-3.3-.4a15.3 15.3 0 0 0-2.9.3c-1 .2-1.8.5-2.5.8a5 5 0 0 0-2.4 3.1h4.7l.2-.3c.1-.3.5-.6.8-.7a2.7 2.7 0 0 1 1-.2c.4 0 .7 0 1 .2.3 0 .5.5.4.8-.2.5-.8.9-1.7 1l-4.7.8a7.2 7.2 0 0 0-1.7.7c-.4.3-.9.6-1.3 1.1-.4.5-.7 1-.9 1.8-.3 1.2-.1 2.1.6 2.8.6.6 1.5.9 2.6.9a7.2 7.2 0 0 0 5-1.7l-.2 1.3h5s-.4-.2-.2-.8l1.9-6.7.4-2.1c0-.6 0-1.1-.3-1.6-.2-.5-.7-.8-1.5-1m-5 9a2.8 2.8 0 0 1-1.2.8h-.8c-1.1 0-1.5-.3-1.4-1 .2-.3.4-.7.7-.9l1-.4 1.3-.2 1.4-.4c-.1.8-.4 1.5-1 2.1m14.6-.3a2.1 2.1 0 0 1-1.5.6c-.7 0-1.1-.3-1.3-.9-.2-.5-.2-1.5.2-2.7.1-.3.5-1.3.9-1.7.2-.4.5-.7.9-.9.3-.2.7-.3 1.1-.3.6 0 .9.2 1.1.5.3.3.3.7.2 1.3h4.8c.3-1.8-.1-3.2-1.1-4-1-.7-2.4-1-4-1-2 0-3.8.5-5.4 1.7a9 9 0 0 0-3.3 4.9c-.6 2-.4 3.6.6 4.8 1 1 2.4 1.6 4.4 1.6a9.8 9.8 0 0 0 4.7-1.2 7.3 7.3 0 0 0 2-1.6c.6-.6 1-1.4 1.4-2.4h-4.8c-.2.6-.5 1-.9 1.3M70.6 8c-.8-1.2-2.3-2-4.7-2a9.9 9.9 0 0 0-1.8.2c-1.5.3-2.9.9-4 1.8a9 9 0 0 0-3 4.6c-.4 1.8-.3 3.3.4 4.6.8 1.3 2.3 2 4.7 2 .7 0 1.3 0 2-.2a8.3 8.3 0 0 0 3.8-1.8 9 9 0 0 0 3-4.6c.5-1.8.4-3.3-.4-4.6m-4.2 4.6c-.3 1-.7 1.8-1.3 2.4-.3.4-1 1-2 1-.7 0-1.2-.3-1.4-1a4 4 0 0 1 0-2.4c.3-1 .7-1.8 1.3-2.5a2.5 2.5 0 0 1 2-.8c.7 0 1.3.2 1.5.8.2.7.2 1.5-.1 2.5m20.7-2.7h3.7l-2.5 8.9H93l2.5-9h3.4l1-3.5H88.1zm61 0h3.7l-2.4 8.9h4.6l2.6-9h3.4l1-3.5h-11.8zM44.7 6.3l-3.5 12.5h4.7l2.5-9h3.8l-2.5 9h4.8L58 6.3zm-8.9 8.9a2 2 0 0 1-1.5.6c-.7 0-1.1-.3-1.3-.9-.2-.5-.2-1.4.2-2.7a9 9 0 0 1 .9-1.7c.2-.4.5-.7.9-.9.3-.2.7-.3 1.1-.3.6 0 .9.2 1.1.5.3.3.3.8.2 1.3H42c.3-1.8-.1-3.2-1.1-4-1-.7-2.5-1-4-1a8.7 8.7 0 0 0-8.7 6.6c-.6 2-.4 3.6.6 4.8 1 1 2.4 1.6 4.4 1.6A9.8 9.8 0 0 0 38 18a7.5 7.5 0 0 0 2-1.6c.5-.6 1-1.4 1.4-2.4h-4.8c-.2.6-.5 1-.9 1.3"/>
</svg>
