<svg width="50" height="56" viewBox="0 0 50 56" fill="none" xmlns="http://www.w3.org/2000/svg">
<g clip-path="url(#clip0_1_367)">
<path fill-rule="evenodd" clip-rule="evenodd" d="M46.0924 34.2316C48.2238 34.2316 49.556 35.3053 49.7336 37.0053H47.6021C47.5133 36.5579 47.4245 35.8421 46.1812 35.8421C45.2931 35.8421 44.7602 35.9316 44.6714 36.5579C44.6714 37.3632 46.4476 37.3632 47.8686 37.7211C49.1119 37.9895 50 38.8842 50 40.0474C50 40.8526 49.7336 41.5684 49.2895 42.0158C48.6679 42.6421 47.4245 43 46.1812 43C44.9378 43 43.8721 42.6421 43.2504 42.0158C42.7176 41.4789 42.4512 40.8526 42.3623 40.2263H44.5826C44.5826 40.7632 44.9378 41.4789 46.3588 41.5684C47.3357 41.5684 47.7798 41.0316 47.7798 40.5842C47.6909 39.8684 46.8917 39.8684 46.0036 39.6895C45.1155 39.5105 44.3162 39.3316 43.7833 39.0632C43.0728 38.7053 42.6288 37.9 42.6288 37.0053C42.6288 35.4842 43.8721 34.2316 46.0924 34.2316ZM37.0337 34.1421C37.9218 34.1421 38.8099 34.4105 39.5204 34.8579V34.2316H41.6519V42.8211H39.5204V42.1947C38.8099 42.6421 38.0107 43 37.0337 43C35.968 43 34.9911 42.6421 34.1918 42.0158C33.2149 41.1211 32.5933 39.8684 32.5933 38.5263C32.5933 36.1105 34.5471 34.1421 37.0337 34.1421ZM31.794 31.2789V42.8211H29.7513V42.1947C29.0409 42.6421 28.2416 43 27.2647 43C26.1989 43 25.1332 42.6421 24.4227 42.0158C23.5346 41.1211 22.8242 39.8684 22.8242 38.5263C22.8242 36.1105 24.778 34.1421 27.2647 34.1421C28.2416 34.1421 29.0409 34.4105 29.7513 34.8579V31.2789H31.794ZM18.8277 31.2789V42.8211H16.7851V42.1947C16.0746 42.6421 15.1865 43 14.2984 43C13.2327 43 12.167 42.6421 11.4565 42.0158C10.3908 41.1211 9.76909 39.8684 9.8579 38.5263C9.8579 36.1105 11.8117 34.1421 14.2984 34.1421C15.1865 34.1421 16.0746 34.4105 16.7851 34.8579V31.2789H18.8277ZM4.4405 34.1421C5.41741 34.1421 6.30551 34.4105 7.01599 34.8579V34.2316H9.05861V42.8211H7.01599V42.1947C6.30551 42.6421 5.41741 43 4.4405 43C3.46359 43 2.39787 42.6421 1.68739 42.0158C0.62167 41.1211 0 39.9579 0 38.5263C0 36.1105 2.04263 34.1421 4.4405 34.1421ZM22.0249 34.2316V42.8211H19.8934V34.2316H22.0249ZM4.52931 36.0211C3.19716 36.0211 2.04263 37.1842 2.04263 38.5263C2.04263 39.8684 3.19716 41.0316 4.52931 41.0316C5.86146 41.0316 7.01599 39.8684 7.01599 38.5263C7.01599 37.1842 5.86146 36.0211 4.52931 36.0211ZM14.2984 36.0211C12.8774 36.0211 11.8117 37.1842 11.8117 38.5263C11.8117 39.8684 12.8774 41.0316 14.2984 41.0316C15.6306 41.0316 16.7851 39.8684 16.7851 38.5263C16.7851 37.1842 15.6306 36.0211 14.2984 36.0211ZM27.3535 36.0211C26.0213 36.0211 24.8668 37.1842 24.8668 38.5263C24.8668 39.8684 26.0213 41.0316 27.3535 41.0316C28.6856 41.0316 29.8401 39.8684 29.8401 38.5263C29.8401 37.1842 28.6856 36.0211 27.3535 36.0211ZM37.0337 36.0211C35.7016 36.0211 34.6359 37.1842 34.5471 38.5263C34.5471 39.8684 35.7016 41.0316 37.0337 41.0316C38.3659 41.0316 39.5204 39.8684 39.5204 38.5263C39.5204 37.1842 38.3659 36.0211 37.0337 36.0211ZM14.032 21.0789L21.492 16.8737L29.7513 31.2789H22.0249V33.4263H19.8934V31.2789L14.032 21.0789ZM29.929 9L42.7176 31.2789H32.8597L22.5577 13.2947L29.929 9ZM12.7886 24.4789L16.7851 31.2789H6.83837L5.41741 28.7737L12.7886 24.4789Z" fill="#1551E5"/>
</g>
<defs>
<clipPath id="clip0_1_367">
<rect width="50" height="56" fill="white"/>
</clipPath>
</defs>
</svg>
