<svg width="125" height="56" viewBox="0 0 125 56" fill="none" xmlns="http://www.w3.org/2000/svg">
<path fill-rule="evenodd" clip-rule="evenodd" d="M6.68565 30.0045C6.97762 30.2859 7.14204 30.6702 7.14204 31.0714C7.14204 31.4725 6.97762 31.8569 6.68565 32.1383L6.1739 32.6359C5.56393 33.2258 4.58291 33.2258 3.97294 32.6359L0.455007 29.2222C0.163833 28.9401 0 28.5556 0 28.1544C0 27.7533 0.163833 27.3688 0.455007 27.0866L0.96766 26.5909C1.57723 26 2.55906 26 3.16863 26.5909L6.68565 30.0045ZM6.33694 23.5143C5.72465 22.9274 4.74554 22.9274 4.13325 23.5143L3.62332 24.0136C3.33174 24.2954 3.16762 24.6798 3.16762 25.081C3.16762 25.4821 3.33174 25.8665 3.62332 26.1483L7.14215 29.5619C7.75212 30.1518 8.73315 30.1518 9.34312 29.5619L9.85487 29.0644C10.1441 28.7816 10.3067 28.3977 10.3067 27.9975C10.3067 27.5972 10.1441 27.2134 9.85487 26.9305L6.33694 23.5143ZM15.7123 26.5297C15.1024 25.9398 14.1213 25.9398 13.5114 26.5297L13.0042 27.0272C12.7129 27.3088 12.549 27.6929 12.549 28.0937C12.549 28.4945 12.7129 28.8786 13.0042 29.1602L16.5275 32.5747C17.134 33.1645 18.113 33.1645 18.7194 32.5747L19.2357 32.0789C19.5269 31.7967 19.6907 31.4122 19.6907 31.0111C19.6907 30.6099 19.5269 30.2255 19.2357 29.9433L15.7123 26.5297ZM18.8825 23.4557C18.2725 22.8658 17.2915 22.8658 16.6815 23.4557L16.1743 23.9524C15.8829 24.2343 15.719 24.6187 15.719 25.0198C15.719 25.4208 15.8829 25.8052 16.1743 26.0871L19.6886 29.5016C20.299 30.0906 21.2792 30.0906 21.8896 29.5016L22.4058 29.0058C22.6959 28.7229 22.859 28.3385 22.859 27.9376C22.859 27.5367 22.6959 27.1523 22.4058 26.8694L18.8825 23.4557ZM13.0313 20.0732C13.3266 19.7933 13.4933 19.4082 13.4933 19.0058C13.4933 18.6035 13.3266 18.2183 13.0313 17.9385L12.5241 17.4418C11.9134 16.8527 10.9329 16.8527 10.3222 17.4418L6.80521 20.8545C6.51308 21.1364 6.3486 21.5212 6.3486 21.9228C6.3486 22.3244 6.51308 22.7092 6.80521 22.991L7.31515 23.4859C7.92521 24.0748 8.90515 24.0748 9.51521 23.4859L13.0313 20.0732ZM16.2015 23.1462C16.4928 22.8643 16.6568 22.4799 16.6568 22.0789C16.6568 21.6778 16.4928 21.2934 16.2015 21.0115L15.6942 20.514C15.0835 19.9259 14.104 19.9259 13.4933 20.514L9.97443 23.9293C9.68325 24.2115 9.51942 24.596 9.51942 24.9971C9.51942 25.3983 9.68325 25.7828 9.97443 26.0649L10.4771 26.5598C11.0906 27.1498 12.0737 27.1498 12.6871 26.5598L16.2015 23.1462ZM13.0404 32.0709C13.3305 31.788 13.4936 31.4036 13.4936 31.0027C13.4936 30.6017 13.3305 30.2173 13.0404 29.9344L12.5332 29.4386C11.9217 28.8498 10.941 28.8498 10.3295 29.4386L6.80702 32.8531C6.5172 33.136 6.35429 33.5202 6.35429 33.9209C6.35429 34.3216 6.5172 34.7059 6.80702 34.9888L7.32058 35.4845C7.93065 36.0734 8.91058 36.0734 9.52065 35.4845L13.0404 32.0709ZM16.2105 35.1448C16.5017 34.8627 16.6655 34.4782 16.6655 34.077C16.6655 33.6759 16.5017 33.2914 16.2105 33.0092L15.6942 32.5135C15.0847 31.9226 14.1028 31.9226 13.4933 32.5135L9.97714 35.9271C9.68557 36.2089 9.52145 36.5933 9.52145 36.9944C9.52145 37.3956 9.68557 37.78 9.97714 38.0618L10.4862 38.5576C11.0961 39.1475 12.0772 39.1475 12.6871 38.5576L16.2105 35.1448ZM41.807 32.1294C41.9066 32.2634 42.3776 32.9746 42.3776 32.9746C42.1415 33.8256 41.8262 34.6536 41.4356 35.4482L41.3269 35.4863C37.8331 36.9054 33.9158 36.9553 30.3855 35.6255C27.8639 34.6801 25.9443 32.627 25.2046 30.0843C24.4378 27.41 24.9761 24.5388 26.6628 22.3055C28.5196 19.8594 31.5267 18.5149 35.6026 18.3065C37.813 18.2509 40.0078 18.6832 42.0243 19.5712L42.1602 19.6519C42.1602 19.6519 42.2327 23.7999 42.1874 23.9799L42.133 24.183C42.133 24.183 40.865 24.2247 40.865 24.2273L40.8016 23.8486C40.5842 22.646 40.0226 19.4142 35.3762 19.6519C33.4631 19.7614 31.7041 20.7149 30.5938 22.2443C29.0966 24.355 28.6384 27.0094 29.3439 29.4848C29.8914 31.7881 31.5359 33.6936 33.7639 34.6065C35.237 35.1192 36.8451 35.1217 38.3198 34.6136C39.6493 34.0372 40.8381 33.19 41.807 32.1286V32.1294ZM57.5761 36.5461V22.2141C57.6412 21.5905 57.4597 20.9661 57.0688 20.4696C56.9964 20.3987 56.3261 19.8772 56.3261 19.8772V19.2448L60.3024 18.4706L60.6556 18.6932C60.6556 18.6932 60.6465 33.8589 60.6465 34.0628C60.7009 35.536 61.7425 35.6353 61.7425 35.6353V36.5479H57.5761V36.5461ZM75.1838 35.5794C74.4324 35.3638 73.9703 34.6256 74.115 33.8722V24.7834L73.7618 24.5626L69.7765 25.3368V25.9709C69.7765 25.9709 70.4649 26.496 70.5283 26.5625C70.9187 27.0592 71.1002 27.6834 71.0355 28.307V33.7214C69.7312 34.6854 68.5266 35.0216 67.7114 34.6446C66.9708 34.1933 66.5619 33.3648 66.6607 32.5161V24.7861L66.3075 24.5652L62.3131 25.3395V25.9736C62.3131 25.9736 63.0015 26.4951 63.074 26.5651C63.4646 27.0689 63.6458 27.6989 63.5812 28.3283V32.9401C63.5722 33.4732 63.63 34.0055 63.7533 34.5249C63.939 35.4405 64.5925 36.1983 65.4832 36.531C66.8962 37.0383 68.8979 36.5443 71.0355 35.1741V36.429H75.4012V35.6309L75.1838 35.5794ZM94.9744 35.5794C94.2951 35.4215 93.9328 34.8451 93.9056 33.8722L93.8966 28.3079C93.8966 27.0308 93.2082 24.6113 90.6178 24.6113C89.1431 24.6572 87.748 25.2768 86.7412 26.3328C86.2631 25.2421 85.1442 24.5561 83.9333 24.6113C82.6576 24.6307 81.4333 25.1068 80.4915 25.9497V24.7861L80.1292 24.5635L76.1439 25.3377V25.9718C76.1439 25.9718 76.8323 26.4969 76.9047 26.5634C77.295 27.0595 77.4765 27.6831 77.412 28.3061V36.4317H81.7505V35.6335L81.5331 35.5847C80.8538 35.4278 80.5096 34.8664 80.4915 33.8695C80.4915 33.8757 80.4824 28.2688 80.4824 27.3775C81.1275 26.836 81.9763 26.5867 82.8193 26.6911C83.4805 26.7478 84.1598 27.1913 84.1779 29.4945L84.1688 36.437H88.5074V35.6388L88.29 35.5901C87.6016 35.4304 87.2484 34.869 87.2303 33.8748C87.2303 33.8828 87.2212 28.3185 87.2212 28.3185C87.2146 28.0138 87.1874 27.7098 87.1397 27.4086C87.7862 26.8491 88.648 26.5904 89.5037 26.6991C90.1649 26.7558 90.8442 27.1993 90.8623 29.5016V36.445H95.1918V35.6468L94.9744 35.5794ZM56.145 30.5508C56.2062 28.9161 55.5849 27.3274 54.424 26.151C53.112 24.9653 51.3711 24.3412 49.5874 24.4171C47.8768 24.3424 46.2093 24.955 44.9712 26.1131C43.733 27.2712 43.0317 28.8742 43.0297 30.5508C43.0297 34.2757 45.6021 36.6827 49.5874 36.6836C51.3553 36.7421 53.0728 36.1004 54.3516 34.9036C55.5241 33.7483 56.1708 32.1785 56.145 30.5499V30.5508ZM49.5874 35.3772C47.1599 35.3772 46.4806 33.5227 46.4806 30.5339C46.4806 28.338 47.1599 25.6925 49.5874 25.6925C52.0148 25.6925 52.7031 28.338 52.7031 30.5339C52.7031 33.5236 52.0238 35.3763 49.5874 35.3763V35.3772ZM109.666 20.8634C109.658 20.2233 110.046 19.6423 110.648 19.3923C111.25 19.1424 111.947 19.273 112.411 19.7231C112.876 20.1732 113.018 20.8535 112.769 21.4456C112.521 22.0377 111.932 22.4243 111.278 22.4243C110.393 22.4273 109.672 21.729 109.666 20.8625V20.8634ZM109.874 36.4317L109.883 28.2316C109.95 27.6199 109.775 27.0063 109.394 26.5173C109.321 26.4472 108.633 25.9239 108.633 25.9239V25.2898L112.618 24.5173L112.972 24.7391C112.972 24.7391 112.963 33.8739 112.963 33.8642C112.99 34.8637 113.334 35.4233 113.995 35.5794L114.213 35.6282V36.4264L109.874 36.4317ZM107.601 27.4006C106.95 26.0844 105.752 25.1067 104.313 24.7178C102.606 24.4399 100.855 24.8056 99.4126 25.7412V18.6914L99.0594 18.4688L95.0831 19.2431V19.8772C95.0831 19.8772 95.7715 20.3987 95.8349 20.4696C96.22 20.9533 96.3956 21.5658 96.324 22.1751L96.3149 35.4357V35.6025L96.4689 35.6787C98.7856 36.8173 101.48 36.9688 103.914 36.0974C105.75 35.4281 107.192 34.0004 107.854 32.1951C108.435 30.6287 108.343 28.899 107.601 27.3997V27.4006ZM104.295 33.7445C103.658 34.8586 102.373 35.4578 101.088 35.2388C99.9742 34.9391 99.3764 33.7986 99.3945 32.0283V27.1106C99.4307 27.092 99.476 27.0724 99.5213 27.0512C100.607 26.394 101.967 26.3452 103.099 26.9226C104.032 27.4089 104.715 28.2548 104.983 29.2559C105.392 30.7809 105.143 32.4036 104.295 33.7436V33.7445ZM125 35.1635L124.774 35.1227C124.392 34.8548 124.196 34.3997 124.266 33.9449V28.5535C124.378 27.2419 123.835 25.9583 122.808 25.1089C121.781 24.4844 120.509 24.3853 119.393 24.8428C117.72 25.5845 116.203 26.6248 114.919 27.9105L114.828 28.0152L114.865 28.1465C114.935 28.3435 115.053 28.5207 115.209 28.6626L115.29 28.7283H117.99C117.99 28.7283 117.98 28.1074 117.98 27.993C117.928 27.1772 118.502 26.4498 119.321 26.2929C119.769 26.1524 120.259 26.2176 120.652 26.4703C121.169 27.0999 121.399 27.9102 121.286 28.7105L121.277 29.3925L115.571 31.851L115.462 31.8997L115.426 32.0115C114.901 33.5582 115.019 34.7484 115.761 35.5493C116.948 36.8122 119.819 36.9878 124.022 36.0707C124.345 36.0043 124.671 35.9545 125 35.9217V35.1581V35.1635ZM121.295 30.7291V34.8868C120.588 35.5185 119.528 35.5876 118.741 35.0535C117.992 34.3432 117.825 33.2282 118.334 32.337L121.295 30.7291Z" fill="#1551E5"/>
</svg>
