<svg width="133" height="56" viewBox="0 0 133 56" fill="none" xmlns="http://www.w3.org/2000/svg">
<g clip-path="url(#clip0_1_391)">
<path fill-rule="evenodd" clip-rule="evenodd" d="M12.3812 26.3354C12.4978 26.6191 12.7774 27.3047 12.854 27.4928C12.916 27.6601 12.8974 27.8481 12.8039 27.9988C12.6126 28.3222 9.44982 33.7501 9.44982 33.7501C9.44982 33.7501 15.6915 29.9751 16.6808 29.3737C17.0615 29.1455 17.3329 28.7622 17.4291 28.3169C17.5253 27.8715 17.4376 27.4047 17.1872 27.0295C16.8456 26.5037 11.4311 18.1462 11.1906 17.7736C11.0983 17.6146 11.0966 17.416 11.1863 17.2553C11.2759 17.0946 11.4426 16.9972 11.6215 17.0011H12.8704C13.3168 16.9857 13.7538 17.137 14.1019 17.4275C17.445 20.1878 24.6933 26.1756 26.7338 27.8664C27.3635 28.3876 27.5 29.3244 27.0471 30.0158C26.3998 30.9867 25.4471 31.6934 24.3526 32.0149C22.7275 32.6333 7.07958 38.5662 4.49437 39.5657C3.73206 39.8596 2.92452 40.0067 2.11138 39.9998H0.44802C0.273241 40.0027 0.113298 39.8982 0.0402964 39.7333C-0.0327056 39.5684 -0.0049791 39.3743 0.110977 39.2385C0.787797 38.4745 11.3245 26.7184 11.7618 26.2314C11.8467 26.1336 11.9736 26.0873 12.0988 26.1083C12.2239 26.1293 12.3303 26.2148 12.3812 26.3354ZM74.911 28.9709C74.6283 28.6935 74.2468 28.5516 73.8588 28.5794H65.0602L66.0185 26.6739H76.6682C77.4513 26.6931 78.1933 26.3108 78.6522 25.6517L79.0666 24.829C79.2367 24.5556 79.2019 24.1965 78.9828 23.9637C78.6934 23.6886 78.3088 23.547 77.917 23.5713H63.4333C62.6536 23.5491 61.9138 23.9282 61.4566 24.5841L55.9837 35.4409C55.8096 35.7175 55.8417 36.082 56.0611 36.3213C56.3475 36.5949 56.7282 36.7368 57.1169 36.7146H71.5141C72.2987 36.7367 73.0424 36.352 73.4981 35.6886L73.9345 34.847C74.0877 34.5734 74.0507 34.228 73.8434 33.996C73.56 33.728 73.1837 33.5914 72.8013 33.6177H62.5169L63.5025 31.6669H72.6118C73.3924 31.6837 74.1318 31.3043 74.5931 30.6503L75.0157 29.8371C75.1743 29.5566 75.1317 29.2006 74.9119 28.969L74.911 28.9709ZM132.961 23.9827C133.098 24.2758 132.87 24.6333 132.34 24.9614L123.811 30.1444L127.223 35.4399C127.401 35.6904 127.379 36.0381 127.17 36.2617C126.858 36.5784 126.432 36.7439 125.997 36.7175L123.395 36.8641C122.564 36.9525 121.75 36.5749 121.259 35.873L119.36 32.8763L114.525 35.8172C113.667 36.3819 112.678 36.6931 111.663 36.7175H108.667C108.406 36.8094 108.117 36.7384 107.923 36.5348C107.73 36.3312 107.665 36.0306 107.756 35.7606C107.848 35.4906 108.08 35.2985 108.354 35.2659L117.363 29.7917L114.161 24.8507C113.986 24.6045 114.004 24.2639 114.205 24.0394C114.516 23.7135 114.947 23.5414 115.389 23.5666H118.085C118.919 23.489 119.728 23.8827 120.203 24.5973L121.805 27.0843L126.45 24.2597C127.372 23.7761 128.396 23.5379 129.428 23.5666H132.064C132.418 23.4924 132.778 23.6581 132.962 23.9798L132.961 23.9827ZM111.59 23.9656C111.808 24.1973 111.845 24.553 111.682 24.8281L106.178 35.6839C105.711 36.3531 104.955 36.7387 104.159 36.7137H101.822C101.428 36.7377 101.042 36.5943 100.753 36.3165C100.537 36.0943 100.499 35.7462 100.662 35.4796L106.146 24.5973C106.605 23.9374 107.346 23.5524 108.131 23.5666H110.51C110.908 23.5409 111.299 23.6851 111.592 23.9656H111.59ZM103.652 23.9524C103.877 24.193 103.915 24.5627 103.743 24.847L98.2836 35.6697C97.831 36.3431 97.0819 36.7342 96.2914 36.7099H94.0295C93.6398 36.7382 93.2559 36.5995 92.9674 36.326C92.7503 36.0824 92.7164 35.7184 92.8845 35.4361L96.2604 28.6768L89.1023 35.8021C88.4636 36.3546 87.6675 36.6736 86.8368 36.7099H85.935C85.221 36.8199 84.5459 36.3401 84.3864 35.6092L84.3136 28.6768L80.8083 35.6291C80.3576 36.3071 79.6046 36.6994 78.8116 36.6693H76.5497C76.1634 36.7002 75.782 36.5632 75.4967 36.291C75.2771 36.05 75.2419 35.6855 75.4111 35.404L80.8766 24.6115C81.3288 23.9451 82.0682 23.5528 82.8534 23.5628H86.9771C87.3762 23.5506 87.768 23.676 88.0912 23.9193C88.3426 24.1012 88.4902 24.4012 88.4847 24.7193L88.502 31.2215L95.2429 24.5198C95.8695 23.932 96.6761 23.593 97.5202 23.5628H102.623C103.002 23.5402 103.373 23.6797 103.65 23.9486L103.652 23.9524ZM57.0167 25.4739C58.0014 26.5718 57.9549 28.1425 56.8746 30.2513C54.6109 34.7156 50.3068 36.7099 42.8982 36.7099H34.9658C34.5691 36.7341 34.1799 36.5909 33.8864 36.3127C33.6784 36.0861 33.6436 35.7424 33.8017 35.4759L37.6922 27.7737H43.3181L40.4688 33.3577H44.1234C48.8074 33.3577 50.1692 32.4045 51.378 30.0215C52.0485 28.708 52.1523 27.9136 51.7315 27.4427C51.266 26.916 50.0335 26.6654 47.8646 26.6654H46.4189C46.4189 26.6654 39.0869 26.6654 38.8491 26.6654C38.347 26.6772 37.8446 26.6554 37.3452 26.6002C36.9945 26.5264 36.8569 26.3761 36.9262 26.1614C37.2113 25.2791 37.7478 24.5074 38.4647 23.9486C38.9828 23.6372 39.5828 23.5047 40.1782 23.5704C40.5571 23.5609 40.927 23.5609 41.3068 23.5609H49.2528C53.3292 23.5609 55.8808 24.1888 57.0176 25.472" fill="#1551E5"/>
</g>
<defs>
<clipPath id="clip0_1_391">
<rect width="133" height="56" fill="white"/>
</clipPath>
</defs>
</svg>
