<svg width="62" height="56" viewBox="0 0 62 56" fill="none" xmlns="http://www.w3.org/2000/svg">
<path fill-rule="evenodd" clip-rule="evenodd" d="M23.6227 17.3921C25.0937 17.3921 26.2863 18.5846 26.2863 20.0556V34.1913C26.2863 35.6623 25.0937 36.8544 23.6227 36.8544C22.1518 36.8544 20.9592 35.6623 20.9592 34.1913V20.0556C20.9592 18.5846 22.1518 17.3921 23.6227 17.3921ZM15.6489 24.4601C17.1199 24.4601 18.312 25.6523 18.312 27.1237C18.312 28.5939 17.1199 29.7868 15.6489 29.7868L6.99439 29.7888C6.75439 29.7888 6.55988 29.9829 6.55988 30.2229L6.56027 34.1899C6.56027 35.6605 5.36773 36.8527 3.89675 36.8527C2.42576 36.8527 1.23322 35.6605 1.23322 34.1899V27.1237C1.23322 25.6523 2.42576 24.4601 3.89675 24.4601H15.6489ZM30.8596 17.3922C32.3306 17.3922 33.5232 18.5843 33.5232 20.0557L33.5251 30.4255C33.5251 30.9051 33.9138 31.2941 34.3934 31.2941H40.7255C41.0659 31.2941 41.3608 31.0984 41.5036 30.8137L48.3934 18.9459C48.922 18.0224 49.9181 17.3977 51.0589 17.3977C52.2012 17.3977 53.1985 18.0228 53.7263 18.949L60.5596 30.6282C60.9008 31.2161 61.0969 31.8996 61.0969 32.6286C61.0969 34.8345 59.3087 36.6228 57.1024 36.6228L49.7247 36.622C48.2545 36.622 47.0612 35.4298 47.0612 33.9588C47.0612 32.4875 48.2545 31.2953 49.7247 31.2953H54.78L51.0651 24.9537L45.0585 35.302C44.5965 36.0918 43.7393 36.622 42.7589 36.622L30.8596 36.6228C29.3887 36.6228 28.1961 35.4302 28.1961 33.9596V20.0557C28.1961 18.5843 29.3887 17.3922 30.8596 17.3922ZM16.9808 17.6332C18.4522 17.6332 19.6443 18.8258 19.6443 20.2971C19.6443 21.7681 18.4522 22.9603 16.9808 22.9603H3.66353C2.19255 22.9603 1 21.7681 1 20.2971C1 18.8258 2.19255 17.6332 3.66353 17.6332H16.9808Z" fill="#1551E5"/>
</svg>
