<svg width="62" height="56" viewBox="0 0 62 56" fill="none" xmlns="http://www.w3.org/2000/svg">
<path d="M6 41.8444H7.12054V39.5709C7.12054 39.166 7.12054 38.6665 7.32348 38.3738C7.52541 38.0557 7.88807 37.9523 8.09051 37.9523C9.03455 37.9523 9.03455 39.0896 9.03455 39.4846V41.8444H10.1546V39.2611C10.1546 38.89 10.1546 38.09 9.72529 37.5651C9.33821 37.0822 8.72225 36.9003 8.31838 36.9003C7.60985 36.9003 7.22226 37.2979 7.03712 37.4788V37.064H6V41.8444Z" fill="#1551E5"/>
<path fill-rule="evenodd" clip-rule="evenodd" d="M15.2509 39.9671C15.2829 39.8127 15.318 39.6142 15.318 39.3907C15.318 38.1859 14.3821 36.8745 12.8989 36.8745C11.4574 36.8745 10.4381 38.1162 10.4381 39.4676C10.4381 40.8622 11.5169 42 12.9075 42C14.0032 42 14.8958 41.2 15.1659 40.3382H13.9854C13.7753 40.7343 13.405 40.949 12.9075 40.949C12.1069 40.949 11.6685 40.2774 11.6176 39.9671H15.2509ZM11.5841 39.0456C11.7946 38.1583 12.4945 37.926 12.9075 37.926C13.464 37.926 14.0449 38.2789 14.1715 39.0456H11.5841Z" fill="#1551E5"/>
<path d="M16.756 41.8444H17.4457L18.3313 38.7444H18.3476L19.225 41.8444H19.9157L21.6263 37.064H20.4299L19.5693 39.9841H19.553L18.7936 37.064H17.9015L17.1344 39.9841H17.1177L16.2667 37.064H15.0699L16.756 41.8444Z" fill="#1551E5"/>
<path fill-rule="evenodd" clip-rule="evenodd" d="M23.7957 41.8444H24.8232V41.2674C25.1004 41.5866 25.4981 41.9998 26.4 41.9998C28.11 41.9998 28.7255 40.3895 28.7255 39.4326C28.7255 38.168 27.7987 36.9003 26.3745 36.9003C25.8516 36.9003 25.3033 37.0994 24.9157 37.496V35.4714H23.7957V41.8444ZM24.8481 39.3905C24.8481 38.693 25.3791 37.9523 26.2387 37.9523C26.9473 37.9523 27.6049 38.5111 27.6049 39.4425C27.6049 40.3713 26.9895 40.9493 26.256 40.9493C25.5988 40.9493 24.8481 40.4498 24.8481 39.3905Z" fill="#1551E5"/>
<path fill-rule="evenodd" clip-rule="evenodd" d="M33.9577 37.0642H32.9288V37.6687H32.912C32.8779 37.5991 32.3128 36.9 31.3616 36.9C30.0641 36.9 29.0183 37.9598 29.0183 39.425C29.0183 41.0176 30.089 42 31.2945 42C31.8835 42 32.5753 41.6803 32.9288 41.252V41.8446H33.9577V37.0642ZM32.8962 39.4427C32.8962 40.3294 32.3052 40.949 31.5295 40.949C30.7294 40.949 30.1389 40.2858 30.1389 39.4765C30.1389 38.7618 30.6109 37.9525 31.5295 37.9525C32.1958 37.9525 32.8962 38.4515 32.8962 39.4427Z" fill="#1551E5"/>
<path d="M35.6741 35.4716H34.5536V41.8446H35.6741V35.4716Z" fill="#1551E5"/>
<path fill-rule="evenodd" clip-rule="evenodd" d="M40.9493 37.0642H39.9214V37.6687H39.9041C39.87 37.5991 39.3049 36.9 38.3537 36.9C37.0547 36.9 36.0104 37.9598 36.0104 39.425C36.0104 41.0176 37.0811 42 38.2861 42C38.8756 42 39.5663 41.6803 39.9214 41.252V41.8446H40.9493V37.0642ZM39.8873 39.4427C39.8873 40.3294 39.2978 40.949 38.5221 40.949C37.721 40.949 37.1315 40.2858 37.1315 39.4765C37.1315 38.7618 37.6035 37.9525 38.5221 37.9525C39.1879 37.9525 39.8873 38.4515 39.8873 39.4427Z" fill="#1551E5"/>
<path d="M41.5459 41.8444H42.6659V39.5709C42.6659 39.166 42.6659 38.6665 42.8689 38.3738C43.0708 38.0557 43.4345 37.9523 43.6359 37.9523C44.5794 37.9523 44.5794 39.0896 44.5794 39.4846V41.8444H45.701V39.2611C45.701 38.89 45.701 38.09 45.2702 37.5651C44.8826 37.0822 44.2682 36.9003 43.8633 36.9003C43.1547 36.9003 42.7682 37.2979 42.582 37.4788V37.064H41.5459V41.8444Z" fill="#1551E5"/>
<path d="M49.6832 40.2859C49.3877 40.7683 49.0179 40.9492 48.6471 40.9492C47.8033 40.9492 47.2392 40.2688 47.2392 39.4507C47.2392 38.4688 47.9136 37.9521 48.5957 37.9521C49.287 37.9521 49.5489 38.4085 49.6832 38.6492H50.9482C50.4675 37.1761 49.1852 36.9001 48.5957 36.9001C47.3063 36.9001 46.1186 37.9698 46.1186 39.4325C46.1186 41.0178 47.4065 41.9996 48.6049 41.9996C49.7005 41.9996 50.5677 41.3535 50.9482 40.2859H49.6832Z" fill="#1551E5"/>
<path fill-rule="evenodd" clip-rule="evenodd" d="M55.9334 39.9671C55.9664 39.8127 56 39.6142 56 39.3907C56 38.1859 55.0651 36.8745 53.5819 36.8745C52.1404 36.8745 51.1206 38.1162 51.1206 39.4676C51.1206 40.8622 52.1994 42 53.5901 42C54.6852 42 55.5794 41.2 55.8484 40.3382H54.6689C54.4578 40.7343 54.088 40.949 53.5901 40.949C52.789 40.949 52.351 40.2774 52.3017 39.9671H55.9334ZM52.2671 39.0456C52.4782 38.1583 53.177 37.926 53.5901 37.926C54.147 37.926 54.7279 38.2789 54.854 39.0456H52.2671Z" fill="#1551E5"/>
<path fill-rule="evenodd" clip-rule="evenodd" d="M25.0756 26L23.5777 28.6436L15.2863 28.167L16.1164 26.6944L25.0756 26ZM31.0694 17.5766L31.8207 20.4941L20.0558 19.704L20.8854 18.232L31.0694 17.5766ZM23.2699 14.0005L30.1564 14.0057L30.6762 16.0006L22.4414 15.4725L23.2699 14.0005ZM22.6646 30.2876L21.4688 32.3886L12.9018 32.3979L13.7314 30.9264L22.6646 30.2876ZM37.7057 24.6195L35.6319 28.2927H37.607C38.522 28.2927 40.1619 27.826 40.6665 26.4943C41.1339 25.2567 40.2748 24.6179 39.6751 24.6179L37.7057 24.6195ZM39.6833 21.1058L41.406 21.0949C42.5525 21.0887 43.7483 20.5528 44.1857 19.4654C44.5891 18.4565 44.0469 17.5974 43.3282 17.6005L41.6619 17.5984L39.6833 21.1058ZM31.8853 20.4941L33.6248 17.4102L39.5124 17.024L39.7178 16.6498L34.2718 16.2605L35.5455 14.0005L45.645 14C48.7508 14 51.0483 15.1347 50.1552 18.4716C49.8866 19.4826 48.6242 22.0274 44.9218 23.0934C45.7076 23.1891 47.6649 24.0753 47.3276 26.3727C46.7284 30.4467 41.5668 32.386 38.6955 32.387L26.7719 32.3927L26.1844 30.0355L32.4295 29.5854L32.6416 29.2122L25.8681 28.7907L25.1382 25.9964L34.7764 25.4215L34.986 25.0514L17.6703 23.935L18.4999 22.4635L37.1385 21.2269L37.3496 20.8563L31.8853 20.4941Z" fill="#1551E5"/>
</svg>
