<svg width="115" height="56" viewBox="0 0 115 56" fill="none" xmlns="http://www.w3.org/2000/svg">
<g clip-path="url(#clip0_214_2495)">
<path d="M46.6718 22.8169C48.5337 22.3511 50.6759 22.6939 52.1246 23.959C53.9545 25.5054 54.2841 28.2742 53.1355 30.2912C52.0016 32.4216 49.3994 33.6417 46.9522 33.3462C45.1445 33.1806 43.4179 32.1166 42.6603 30.5087C41.6519 28.461 42.2225 25.8624 43.9196 24.3089C44.6796 23.5901 45.6437 23.0794 46.6718 22.8193V22.8169ZM47.1662 25.373C45.3511 25.9783 44.6403 28.4137 45.8208 29.8537C46.5956 30.8658 48.182 31.0573 49.2715 30.4189C50.6833 29.6315 51.1777 27.676 50.307 26.3495C49.6823 25.3422 48.2828 24.9663 47.1637 25.373H47.1662ZM31.5261 23.3371C31.5851 23.1219 31.6417 22.7956 31.9589 22.8334C32.7829 22.8264 33.6191 22.7672 34.4357 22.8736C35.5523 24.6352 36.5312 26.4819 37.5986 28.2742C37.9872 26.638 38.366 25.0017 38.7497 23.3678C38.8136 23.1763 38.8259 22.8642 39.1039 22.8429C39.886 22.8003 40.6755 22.8027 41.4576 22.8429C41.8143 22.8973 41.7552 23.2922 41.6839 23.5381C40.9706 26.5694 40.2598 29.5984 39.5564 32.6321C39.4925 32.8472 39.4457 33.2043 39.1211 33.1688C38.3488 33.1735 37.5593 33.2492 36.7968 33.1215C35.6458 31.2914 34.6251 29.3808 33.5207 27.5223C33.1174 29.2413 32.7165 30.9627 32.3131 32.6817C32.2492 32.8638 32.2221 33.1688 31.954 33.1641C31.1719 33.2066 30.3849 33.2043 29.6052 33.1641C29.2731 33.1073 29.31 32.7408 29.3764 32.5091C30.0946 29.4541 30.8103 26.3992 31.5261 23.3418V23.3371ZM56.4042 23.3536C56.4435 23.0935 56.5763 22.7696 56.9207 22.8287C58.5292 22.8122 60.1402 22.8216 61.7512 22.8264C62.853 22.8476 64.1049 23.0297 64.86 23.8857C65.5831 24.7251 65.4749 25.9263 65.1306 26.8981C64.7026 28.1631 63.5835 29.0971 62.3267 29.5842C62.8038 30.608 63.3228 31.6153 63.7827 32.6463C63.9451 32.8922 63.6868 33.2232 63.3991 33.1735C62.4694 33.157 61.5175 33.261 60.6026 33.1121C60.0246 32.1355 59.6434 31.0549 59.1367 30.0405H57.843C57.6192 30.9556 57.4224 31.8778 57.1937 32.7905C57.1592 33.0057 56.9969 33.2114 56.746 33.1735C56.0254 33.1901 55.3023 33.1948 54.5841 33.1688C54.2939 33.2019 54.1316 32.8803 54.2324 32.6463C54.9432 29.5464 55.6835 26.4512 56.4017 23.3513L56.4042 23.3536ZM59.0039 25.3233C58.8022 26.1462 58.5981 26.969 58.3988 27.7895C59.24 27.7659 60.091 27.8557 60.9272 27.7233C61.7733 27.5932 62.4472 26.742 62.2185 25.9239C62.0734 25.5148 61.5962 25.3682 61.1904 25.3351C60.4624 25.2949 59.7319 25.3304 59.0039 25.3233ZM68.1484 22.9351C68.5099 22.7247 68.9871 22.8547 69.3954 22.8169C71.2179 22.8878 73.1191 22.6017 74.8678 23.2354C76.0238 23.6327 76.983 24.5879 77.2265 25.7631C77.5635 27.4112 77.0002 29.1515 75.9648 30.4756C74.6612 32.1308 72.5239 33.0506 70.3964 33.1546C69.1174 33.2066 67.8385 33.1664 66.5595 33.183C66.321 33.157 65.9865 33.2397 65.8414 32.9915C65.7479 32.8189 65.8414 32.6202 65.8635 32.4405C66.5694 29.447 67.2728 26.4512 67.9689 23.453C68.0082 23.2732 68.0672 23.0983 68.1459 22.9304L68.1484 22.9351ZM70.5366 25.3422C70.1234 27.1062 69.7102 28.8677 69.2995 30.6293C70.3251 30.6317 71.422 30.705 72.3566 30.2179C73.3159 29.7615 73.9553 28.8204 74.1324 27.8202C74.2849 27.1156 74.1226 26.2833 73.4954 25.8293C72.6493 25.2098 71.5327 25.3564 70.539 25.3422H70.5366ZM78.7514 23.3607C78.6973 23.1574 78.7908 22.8642 79.0539 22.8713C79.8828 22.8334 80.7166 22.8311 81.5454 22.8713C81.8898 22.8878 81.8479 23.2922 81.8873 23.5239C82.0201 25.2713 82.1677 27.0187 82.3005 28.7661C83.4589 26.8153 84.5362 24.8149 85.7438 22.8949C86.3218 22.7341 86.949 22.8476 87.5467 22.8145C87.8418 22.8145 88.3435 22.7791 88.3411 23.1881C88.5747 25.0419 88.7543 26.9004 88.9732 28.7542C90.0775 26.813 91.0712 24.8078 92.237 22.902C93.0486 22.7932 93.8824 22.8453 94.7014 22.8689C95.0703 22.8902 95.0851 23.33 94.8883 23.5523C93.083 26.6616 91.2802 29.7757 89.4676 32.8851C89.3716 33.1192 89.1208 33.209 88.8773 33.1783C88.2157 33.1759 87.5467 33.2161 86.8875 33.1452C86.6219 33.0246 86.6735 32.6935 86.6145 32.4642C86.3956 30.7428 86.1669 29.0214 85.9431 27.2977C84.9322 28.986 83.9238 30.6742 82.9228 32.3672C82.7506 32.6368 82.6227 32.9418 82.3718 33.1523C81.602 33.2043 80.8248 33.2043 80.0574 33.1523C79.7672 33.0648 79.8139 32.7243 79.7647 32.502C79.4376 29.4541 79.0761 26.4086 78.7514 23.3607ZM98.735 22.8973C99.5811 22.7341 100.489 22.8334 101.354 22.8405C101.664 22.8216 101.674 23.1787 101.738 23.3797C102.365 26.4252 102.995 29.4683 103.625 32.5115C103.691 32.7503 103.711 33.1594 103.349 33.1594C102.469 33.1877 101.578 33.2208 100.7 33.1381C100.25 32.5067 100.353 31.6177 100.139 30.8799C98.8875 30.8823 97.6356 30.8634 96.3813 30.8681C95.8574 31.6177 95.4491 32.45 94.8514 33.1475C94.025 33.2043 93.1913 33.1948 92.3673 33.157C91.9517 33.0648 92.0747 32.6084 92.2862 32.3862C94.4456 29.2319 96.5338 26.0256 98.7326 22.8973H98.735ZM97.7832 28.6478C98.4547 28.6478 99.1286 28.6478 99.8 28.6478C99.6574 27.8392 99.5147 27.0329 99.3671 26.2265C98.8359 27.0305 98.3095 27.8392 97.7832 28.6478ZM104.498 23.505C104.318 23.226 104.424 22.7767 104.84 22.8334C105.759 22.85 106.728 22.7081 107.624 22.9186C108.175 24.0985 108.507 25.3682 108.979 26.5812C110.024 25.3659 110.981 24.0748 112.073 22.902C113.022 22.7601 114.053 22.746 115 22.9564V23.3205C113.632 24.9497 112.206 26.5292 110.819 28.1418C110.42 28.6336 109.857 29.0545 109.732 29.6977C109.495 30.679 109.289 31.6673 109.048 32.6463C108.972 32.8283 108.957 33.1783 108.674 33.1594C107.852 33.209 107.019 33.2232 106.2 33.1452C106.153 33.0955 106.06 32.9986 106.013 32.9489C106.133 31.7596 106.574 30.6198 106.763 29.4376C106.8 29.1893 106.655 28.9599 106.586 28.7282C105.882 26.9903 105.186 25.25 104.498 23.5073V23.505Z" fill="#1551E5"/>
<path fill-rule="evenodd" clip-rule="evenodd" d="M13.1535 16H11.9164C8.83461 16.1466 5.82661 17.4093 3.65239 19.5208C1.48063 21.585 0.174626 24.439 0 27.3687V28.6621C0.184464 31.5823 1.48801 34.4268 3.65977 36.4839C5.83645 38.5978 8.85183 39.8581 11.9361 40H13.188C14.8186 39.8912 16.4395 39.52 17.9152 38.8343C20.5641 37.626 22.7408 35.4932 23.9386 32.9206C25.2323 30.1825 25.3823 26.9738 24.369 24.1316C23.5377 21.7718 21.9119 19.6816 19.8016 18.2368C17.8709 16.8938 15.5294 16.1348 13.1535 16ZM9.20151 22.9182C9.20219 22.9175 9.20286 22.9169 9.20354 22.9163C9.57915 22.8305 9.96906 22.812 10.3631 22.8149C10.5458 22.8161 10.7292 22.822 10.9125 22.8279C11.0766 22.8331 11.2406 22.8383 11.4036 22.8403C11.5433 22.8419 11.6824 22.8411 11.8205 22.8359C11.8353 22.833 11.8497 22.8309 11.8637 22.8294C11.9874 22.8167 12.0802 22.8585 12.1528 22.9282C12.2552 23.026 12.3175 23.1787 12.3683 23.3119C12.3685 23.3124 12.3688 23.313 12.369 23.3135C13.1912 25.4172 14.0182 27.5198 14.8449 29.6221C15.2225 30.5821 15.6 31.5421 15.9771 32.5021C16.0878 32.7078 16.1468 33.1027 15.8148 33.15C15.7321 33.1547 15.6495 33.1586 15.5668 33.162C14.9879 33.1854 14.4069 33.1777 13.8265 33.1701C13.8264 33.1701 13.8264 33.1701 13.8264 33.1701C13.6554 33.1679 13.4843 33.1656 13.3134 33.1642C13.2902 33.1672 13.2682 33.1682 13.2474 33.1676C13.0133 33.1603 12.9195 32.9353 12.8392 32.7424C12.8249 32.7081 12.8111 32.6748 12.7969 32.6439C12.7509 32.5268 12.7049 32.4097 12.6589 32.2926C11.5232 29.4015 10.3829 26.5106 9.2381 23.6241C9.23641 23.6199 9.23474 23.6157 9.23306 23.6114C9.22 23.5702 9.20306 23.5268 9.18565 23.4823C9.14333 23.374 9.09823 23.2585 9.09939 23.1492C9.09993 23.0665 9.12687 22.9876 9.20151 22.9182ZM15.3573 25.9878C15.3573 25.9878 15.3573 25.9878 15.3573 25.9878V25.9854C15.501 25.6687 15.6354 25.3457 15.7701 25.0221C16.0777 24.2826 16.3866 23.5402 16.8109 22.8642C17.6744 22.8015 18.5461 22.8219 19.413 22.8421C19.4942 22.844 19.5754 22.8459 19.6565 22.8477C19.8955 22.8353 19.9792 23.07 19.9487 23.2733C19.9388 23.3428 19.9155 23.4088 19.8804 23.4601C19.4888 24.4002 19.0951 25.3391 18.7013 26.278C18.1553 27.58 17.6093 28.882 17.0691 30.1872C16.8433 29.6105 16.5993 29.0398 16.3554 28.4693C16.0043 27.6481 15.6534 26.8274 15.3573 25.9902V25.9878ZM6.95387 28.2318C7.34187 27.3136 7.72983 26.3955 8.10905 25.4747C8.10906 25.4747 8.10906 25.4747 8.10906 25.4747C8.10906 25.4747 8.10907 25.4747 8.10907 25.4747C8.43081 26.3317 8.74989 27.1887 9.06898 28.0457C9.28164 28.6169 9.49431 29.188 9.70776 29.7592C9.61663 29.9796 9.52537 30.2 9.4341 30.4204C9.12386 31.1696 8.81348 31.9191 8.50751 32.67C8.50205 32.6819 8.49657 32.6942 8.49103 32.7067C8.4864 32.7172 8.48174 32.7279 8.47702 32.7387C8.39329 32.9303 8.29172 33.1627 8.05516 33.1683C8.03405 33.1688 8.01187 33.1675 7.98855 33.1642C7.9411 33.1626 7.89355 33.1615 7.84593 33.1607C7.57312 33.1566 7.29722 33.1651 7.02093 33.1736C6.39848 33.1928 5.77397 33.212 5.17803 33.0868M6.95387 28.2318C6.31263 29.7493 5.67129 31.267 5.06908 32.7976ZM5.06908 32.7976C5.06919 32.7979 5.06931 32.7982 5.06943 32.7985ZM5.06943 32.7985C5.07928 32.8253 5.09234 32.8612 5.10625 32.8995C5.13049 32.9662 5.15735 33.0402 5.17451 33.0852" fill="#1551E5"/>
</g>
<defs>
<clipPath id="clip0_214_2495">
<rect width="115" height="24" fill="white" transform="translate(0 16)"/>
</clipPath>
</defs>
</svg>
