<svg width="92" height="56" viewBox="0 0 92 56" fill="none" xmlns="http://www.w3.org/2000/svg">
<g clip-path="url(#clip0_214_2396)">
<path fill-rule="evenodd" clip-rule="evenodd" d="M11.1255 17C4.98854 17 0 21.9885 0 28.1255C0 32.2168 2.18922 35.7698 5.49098 37.7078C3.30177 36.0211 1.86622 33.3653 1.86622 30.3865C1.86622 25.2903 6.02931 21.1272 11.1255 21.1272C16.2576 21.1272 20.3848 25.2544 20.3848 30.3865C20.3848 33.4012 18.9493 36.0928 16.7242 37.7796C20.0618 35.8416 22.2869 32.2527 22.2869 28.1255C22.2869 21.9885 17.2984 17 11.1255 17ZM11.1257 24.6802C7.07029 24.6802 3.80441 27.9461 3.80441 32.0015C3.80441 35.3033 5.99363 38.1026 9.04418 38.9999C6.99852 38.1744 5.56296 36.1646 5.56296 33.8319C5.56296 30.7454 8.07518 28.2691 11.1257 28.2691C14.2122 28.2691 16.6885 30.7454 16.6885 33.8319C16.6885 36.1646 15.2529 38.1385 13.2432 38.964C16.2219 38.0668 18.4111 35.2674 18.4111 31.9657C18.447 27.9461 15.1453 24.6802 11.1257 24.6802ZM25.23 27.0483C25.23 24.8232 26.6297 24.3925 28.6036 24.3925C30.5774 24.3925 31.9771 24.8232 31.9771 27.0483V28.9504C31.9771 31.2114 30.5774 31.6421 28.6036 31.6421C26.6297 31.6421 25.23 31.2114 25.23 28.9504V27.0483ZM28.6395 29.9553C29.6443 29.9553 30.0032 29.8476 30.0032 28.771V27.2636C30.0032 26.187 29.6443 26.0793 28.6395 26.0793C27.6346 26.0793 27.2757 26.187 27.2757 27.2636V28.771C27.2757 29.8476 27.6346 29.9553 28.6395 29.9553ZM35.9249 29.8117C36.7503 29.8117 37.0374 29.74 37.0374 28.8786V24.6079H38.9754V29.0222C38.9754 30.9602 38.0782 31.4985 35.9249 31.4985C33.0179 31.4985 32.6949 30.7448 32.6949 29.0222V24.6079H34.6329V28.9863C34.6329 29.8117 35.0994 29.8117 35.9249 29.8117ZM48.6654 29.7759H48.7013L50.3163 24.572H52.326L50.2086 31.4267H48.2706C47.4811 31.4267 46.9786 30.8525 46.7633 30.0988L45.6148 26.2946H43.4974V31.4267H41.5594V26.2946H39.6932V24.6079H47.0863L48.6654 29.7759ZM52.7926 30.2065V25.8281C52.7926 25.1103 53.3309 24.6079 54.0487 24.572H58.1041V26.1511H54.7306V27.3354H57.2787V28.6633H54.7306V29.8476H58.1041V31.4267H54.0487C53.3668 31.4267 52.7926 30.8884 52.7926 30.2065ZM64.3129 29.74H64.3847L64.3129 24.6079H66.2509V31.4626H63.954C63.1645 31.4626 62.7338 30.8525 62.4467 30.0988L60.8676 26.3305H60.7958L60.9035 31.4626H58.9655V24.6079H61.2265C62.016 24.6079 62.4467 25.218 62.7338 25.9716L64.3129 29.74ZM68.6913 26.2588H66.8251L66.7892 24.572H72.5673V26.2588H70.6293V31.3908H68.6913V26.2588ZM76.4433 29.8117C77.2688 29.8117 77.5559 29.74 77.5559 28.8786V24.6079H79.4939V29.0222C79.4939 30.9602 78.5966 31.4985 76.4433 31.4985C73.5363 31.4985 73.2133 30.7448 73.2133 29.0222V24.6079H75.1513V28.9863C75.1513 29.8117 75.6179 29.8117 76.4433 29.8117ZM83.9441 24.6079C85.3796 24.6079 86.2409 24.9309 86.2409 26.6176C86.2409 27.6584 85.9897 28.0173 84.9848 28.125V28.1609C85.8103 28.1967 86.2409 28.6633 86.2409 29.4887V31.4626H84.303V29.6323C84.303 29.094 84.0876 28.9504 83.4775 28.9504H82.1855V31.4626H80.2475V24.6079H83.9441ZM82.2214 27.6943H83.4775C84.1235 27.6943 84.303 27.6943 84.3388 26.9406C84.3388 26.2946 84.2671 26.1511 83.7287 26.1511H82.2214V27.6943ZM92.2344 24.6079V26.1511H88.8608V27.3354H91.4089V28.6633H88.8608V29.8476H92.2344V31.4267H88.1789C87.4971 31.4267 86.9228 30.8884 86.9228 30.2065V25.8281C86.9228 25.1462 87.4971 24.6079 88.1789 24.6079H92.2344Z" fill="#1551E5"/>
</g>
<defs>
<clipPath id="clip0_214_2396">
<rect width="92" height="56" fill="white"/>
</clipPath>
</defs>
</svg>
