<svg width="59" height="56" viewBox="0 0 59 56" fill="none" xmlns="http://www.w3.org/2000/svg">
<path fill-rule="evenodd" clip-rule="evenodd" d="M14.0222 28.6136C14.261 28.616 14.261 28.6424 14.261 28.9328V39.8974C14.261 40.945 15.4781 40.9734 15.4781 39.8974L15.487 28.9328C15.487 28.6134 15.487 28.6134 15.8348 28.6134H18.9799C19.2702 28.7171 19.3359 28.6134 19.3359 28.9328V40.6385C19.3732 42.2098 18.9799 42.5293 17.7913 42.5293H11.7045C10.6562 42.5293 10.2718 42.248 10.2718 40.5355L10.2721 28.8594C10.2745 28.6134 10.3039 28.6134 10.6562 28.6134L14.0222 28.6136ZM33.0444 28.6137C34.1212 28.6137 34.5055 28.9331 34.5055 30.121L34.5053 42.3174C34.5026 42.5288 34.4739 42.5288 34.1577 42.5288H31.0401C30.6566 42.5288 30.6566 42.5288 30.6566 42.2475V30.8994C30.6566 29.9077 29.4396 29.9621 29.4396 30.8994L29.4393 42.3174C29.4366 42.5288 29.4071 42.5288 29.0828 42.5288H26.0496C25.5906 42.5288 25.5906 42.5288 25.5906 42.2475V30.8994C25.5906 29.804 24.3744 29.9077 24.3744 30.8994V42.2475C24.3744 42.5288 24.3744 42.5288 23.952 42.5288H20.909C20.5255 42.5288 20.5255 42.5288 20.5255 42.2475V30.1964C20.5255 28.9331 20.909 28.6137 22.2023 28.6137H33.0444ZM7.07943 28.6134C8.59565 28.6134 8.97024 28.9329 8.97024 30.4021V37.0143C8.97024 38.7364 8.59565 39.0924 7.07943 39.1572H4.22376C3.86781 39.1572 3.86781 39.2148 3.86781 39.5797L3.8675 42.3241C3.86471 42.5286 3.83676 42.5286 3.55727 42.5286H0.374028C0.0942982 42.5286 0.00916306 42.3137 0.000244141 42.2391V42.2286C0.00916306 42.2205 0.00916306 42.2099 0.0188928 42.2205L0.0191146 28.894C0.0217762 28.6134 0.0563772 28.6134 0.50619 28.6134H7.07943ZM43.5679 28.6134C44.5798 28.6134 44.8977 28.9329 44.8977 30.1215L44.8974 42.3241C44.8946 42.5286 44.8668 42.5286 44.5888 42.5286L41.3383 42.5284C41.0496 42.5263 41.0496 42.5031 41.0496 42.248V39.5797C41.0496 39.1118 40.7407 38.8856 40.4309 38.8961C40.1423 38.9059 39.8609 39.1191 39.8228 39.5424L39.8225 42.3178C39.8196 42.5286 39.788 42.5286 39.4401 42.5286L36.2995 42.5284C35.9747 42.5266 35.9747 42.5052 35.9747 42.248V30.1313C35.9747 28.9329 36.3963 28.6134 37.4171 28.6134H43.5679ZM32.8666 13.8108C33.0718 13.9697 33.1277 13.9154 33.4188 14.5592C33.4464 14.6265 33.5315 14.7189 33.6247 14.7765C35.488 15.0003 37.0326 15.7584 39.2518 17.5113C39.2518 17.5113 40.5183 18.498 41.9142 19.5786L42.358 19.9219C43.917 21.1271 45.4877 22.3324 45.5347 22.3324C47.0428 23.2867 49.6545 23.7643 51.1253 22.5667C52.5864 21.0019 53.4847 19.5505 53.8691 17.9784C54.2988 16.8813 56.0696 14.9151 57.0531 14.4951C57.8096 14.1294 58.438 13.9892 58.7282 14.4578C59.0169 14.9248 59.1126 15.2062 58.4842 16.2359C57.4731 16.9016 56.5836 17.1351 55.6472 17.8851C54.5428 18.7648 53.7645 19.9916 53.3064 21.554C53.0064 22.4354 52.3326 23.3435 51.0969 24.2703C50.8999 24.383 50.7588 24.5427 50.8431 24.7567C51.5826 26.0857 51.9669 27.4267 51.9961 29.1765C52.07 29.4471 52.08 29.6943 52.0764 29.9357L52.0681 30.2441C52.0498 30.9625 52.1031 31.6952 53.5877 32.9135C53.7645 34.073 54.2891 34.5708 54.3361 35.1781C53.7645 36.5459 54.4577 37.1532 53.9615 37.557C52.0804 37.1532 52.0042 35.6086 52.1826 33.747C50.038 32.5008 48.5769 30.1211 47.4264 27.173C46.9577 25.9559 46.0123 25.4411 44.7758 25.1321C41.0591 25.0843 38.6437 23.7838 36.958 21.7786C36.6126 21.5265 36.405 21.2265 36.0685 21.6489C34.9553 22.5935 33.2777 22.1265 31.1809 21.2184C30.8347 21.1065 30.4318 20.8908 30.3564 21.3675C29.8326 22.4078 28.8312 21.6384 28.7558 21.087C28.6609 19.673 29.6728 19.467 30.8428 19.3648C31.378 19.3648 31.9391 19.4857 32.4726 19.4857L32.5504 19.4461C32.5811 19.4293 32.6054 19.4098 32.6501 19.3543C32.6785 18.7446 32.7815 18.3424 31.5831 18.2589C30.8907 18.3521 30.6466 18.3619 30.0474 17.8097C29.9355 17.7821 29.8415 17.7619 29.728 17.7157C29.6639 17.65 29.655 17.6127 29.608 17.5186C29.552 17.453 29.4012 17.3792 29.4012 17.0873C29.2326 16.9665 29.2707 16.733 29.3639 16.4694C29.4012 16.4694 29.6453 16.1046 29.8512 15.88C29.9542 15.7584 29.9728 15.5532 30.1228 15.4211C30.5161 15.0951 30.9458 14.7189 30.9458 14.7189C31.1996 14.3451 31.3488 13.9697 31.5361 13.9332C31.6958 13.9413 31.8547 14.0735 32.0047 14.1384C32.0704 14.1765 32.0891 14.1765 32.2009 14.1765C32.445 14.1019 32.6234 13.9981 32.8666 13.8108ZM4.49457 30.1313C4.17673 30.1313 3.86781 30.3478 3.86781 30.7588V36.7978C3.86781 37.2388 4.17673 37.4545 4.49457 37.4545C4.79457 37.4545 5.10349 37.2486 5.12214 36.8351V30.7864C5.12214 30.3478 4.81322 30.1313 4.49457 30.1313ZM40.4309 30.291C40.1325 30.291 39.8228 30.4872 39.8228 30.8999V36.8351C39.8228 37.2007 40.1325 37.388 40.4309 37.388C40.7407 37.397 41.0496 37.2113 41.0496 36.8351V30.8999C41.0496 30.5067 40.7407 30.3007 40.4309 30.291Z" fill="#1551E5"/>
</svg>
